<svg width="462" height="114" viewBox="0 0 462 114" fill="none" xmlns="http://www.w3.org/2000/svg">
<path d="M57.4891 113.868L69.1712 85.5404L97.4626 97.3109L85.6922 69.0195L114.02 57.3374L85.6922 45.6553L97.4626 17.3639L69.1712 29.1344L57.4891 0.806396L45.8071 29.1344L17.5157 17.3639L29.2861 45.6553L0.95813 57.3374L29.2861 69.0195L17.5157 97.3109L45.8071 85.5404L57.4891 113.868Z" fill="#27272A"/>
<path fill-rule="evenodd" clip-rule="evenodd" d="M445.649 17.286H461.624V96.9858H446.437V89.5608H446.212C444.337 92.7108 441.862 94.9983 438.787 96.4233C435.787 97.7733 432.374 98.4483 428.549 98.4483C424.199 98.4483 420.374 97.6233 417.074 95.9733C413.774 94.2483 411.037 91.9608 408.862 89.1108C406.762 86.1858 405.149 82.8483 404.024 79.0983C402.974 75.3483 402.449 71.4483 402.449 67.3983C402.449 63.4983 402.974 59.7483 404.024 56.1483C405.149 52.4733 406.762 49.2483 408.862 46.4733C411.037 43.6983 413.737 41.4858 416.962 39.8358C420.187 38.1108 423.937 37.2483 428.212 37.2483C431.662 37.2483 434.924 37.9983 437.999 39.4983C441.149 40.9233 443.624 43.0608 445.424 45.9108H445.649V17.286ZM446.212 67.7358C446.212 65.3358 445.987 63.0483 445.537 60.8733C445.087 58.6233 444.299 56.6733 443.174 55.0233C442.124 53.2983 440.737 51.9108 439.012 50.8608C437.287 49.8108 435.112 49.2858 432.487 49.2858C429.862 49.2858 427.649 49.8108 425.849 50.8608C424.049 51.9108 422.587 53.2983 421.462 55.0233C420.412 56.7483 419.624 58.7358 419.099 60.9858C418.649 63.1608 418.424 65.4483 418.424 67.8483C418.424 70.0983 418.687 72.3483 419.212 74.5983C419.737 76.8483 420.562 78.8733 421.687 80.6733C422.887 82.3983 424.349 83.8233 426.074 84.9483C427.874 85.9983 430.012 86.5233 432.487 86.5233C435.112 86.5233 437.287 85.9983 439.012 84.9483C440.812 83.8983 442.237 82.5108 443.287 80.7858C444.337 78.9858 445.087 76.9608 445.537 74.7108C445.987 72.4608 446.212 70.1358 446.212 67.7358Z" fill="#27272A"/>
<path d="M250.634 39.4479H265.709V46.6983H265.934C268.034 43.6983 270.547 41.3733 273.472 39.7233C276.472 38.0733 279.884 37.2483 283.709 37.2483C287.384 37.2483 290.722 37.9608 293.722 39.3858C296.797 40.8108 299.122 43.3233 300.697 46.9233C302.422 44.3733 304.747 42.1233 307.672 40.1733C310.672 38.2233 314.197 37.2483 318.247 37.2483C321.322 37.2483 324.172 37.6233 326.797 38.3733C329.422 39.1233 331.672 40.3233 333.547 41.9733C335.422 43.6233 336.884 45.7983 337.934 48.4983C338.984 51.1233 339.509 54.3108 339.509 58.0608V96.9858H323.534V64.0233C323.534 62.0733 323.459 60.2358 323.309 58.5108C323.159 56.7858 322.747 55.2858 322.072 54.0108C321.397 52.7358 320.384 51.7233 319.034 50.9733C317.759 50.2233 315.997 49.8483 313.747 49.8483C311.497 49.8483 309.659 50.2983 308.234 51.1983C306.884 52.0233 305.797 53.1483 304.972 54.5733C304.222 55.9233 303.697 57.4983 303.397 59.2983C303.172 61.0233 303.059 62.7858 303.059 64.5858V96.9858H287.084V64.3608C287.084 62.6358 287.047 60.9483 286.972 59.2983C286.897 57.5733 286.559 55.9983 285.959 54.5733C285.434 53.1483 284.497 52.0233 283.147 51.1983C281.872 50.2983 279.959 49.8483 277.409 49.8483C276.659 49.8483 275.647 50.0358 274.372 50.4108C273.172 50.7108 271.972 51.3483 270.772 52.3233C269.647 53.2233 268.672 54.5733 267.847 56.3733C267.022 58.0983 266.609 60.3858 266.609 63.2358V96.9858H250.634V39.4479Z" fill="#27272A"/>
<path d="M227.485 39.4479H243.46V96.9858H228.272V88.8858H227.935C225.91 92.2608 223.285 94.6983 220.06 96.1983C216.835 97.6983 213.535 98.4483 210.16 98.4483C205.885 98.4483 202.36 97.8858 199.585 96.7608C196.885 95.6358 194.747 94.0608 193.172 92.0358C191.597 89.9358 190.472 87.4233 189.797 84.4983C189.197 81.4983 188.897 78.1983 188.897 74.5983V39.4479H204.872V71.6733C204.872 76.4733 205.622 80.0733 207.122 82.4733C208.622 84.7983 211.285 85.9608 215.11 85.9608C219.46 85.9608 222.61 84.6858 224.56 82.1358C226.51 79.5108 227.485 75.2358 227.485 69.3108V39.4479Z" fill="#27272A"/>
<path d="M165.248 17.286H181.786V96.9858H164.123L130.711 43.2108H130.486V96.9858H113.948V17.286H131.887L165.023 70.5483H165.248V17.286Z" fill="#27272A"/>
<path fill-rule="evenodd" clip-rule="evenodd" d="M345.387 56.7108C345.612 52.9608 346.55 49.8483 348.2 47.3733C349.85 44.8983 351.95 42.9108 354.5 41.4108C357.05 39.9108 359.9 38.8608 363.05 38.2608C366.275 37.5858 369.5 37.2483 372.725 37.2483C375.65 37.2483 378.612 37.4733 381.612 37.9233C384.612 38.2983 387.35 39.0858 389.825 40.2858C392.3 41.4858 394.325 43.1733 395.9 45.3483C397.475 47.4483 398.262 50.2608 398.262 53.7858V84.0483C398.262 86.6733 398.412 89.1858 398.712 91.5858C399.012 93.9858 399.537 95.7858 400.287 96.9858H384.087C383.787 96.0858 383.525 95.1858 383.3 94.2858C383.15 93.3108 383.037 92.3358 382.962 91.3608C380.412 93.9858 377.412 95.8233 373.962 96.8733C370.512 97.9233 366.987 98.4483 363.387 98.4483C360.612 98.4483 358.025 98.1108 355.625 97.4358C353.225 96.7608 351.125 95.7108 349.325 94.2858C347.525 92.8608 346.1 91.0608 345.05 88.8858C344.075 86.7108 343.587 84.1233 343.587 81.1233C343.587 77.8233 344.15 75.1233 345.275 73.0233C346.475 70.8483 347.975 69.1233 349.775 67.8483C351.65 66.5733 353.75 65.6358 356.075 65.0358C358.475 64.3608 360.875 63.8358 363.275 63.4608C365.675 63.0858 368.037 62.7858 370.362 62.5608C372.687 62.3358 374.75 61.9983 376.55 61.5483C378.35 61.0983 379.775 60.4608 380.825 59.6358C381.875 58.7358 382.362 57.4608 382.287 55.8108C382.287 54.0858 381.987 52.7358 381.387 51.7608C380.862 50.7108 380.112 49.9233 379.137 49.3983C378.237 48.7983 377.15 48.4233 375.875 48.2733C374.675 48.0483 373.362 47.9358 371.937 47.9358C368.787 47.9358 366.312 48.6108 364.512 49.9608C362.712 51.3108 361.662 53.5608 361.362 56.7108H345.387ZM382.287 68.5233C381.612 69.1233 380.75 69.6108 379.7 69.9858C378.725 70.2858 377.637 70.5483 376.437 70.7733C375.312 70.9983 374.112 71.1858 372.837 71.3358C371.562 71.4858 370.287 71.6733 369.012 71.8983C367.812 72.1233 366.612 72.4233 365.412 72.7983C364.287 73.1733 363.275 73.6983 362.375 74.3733C361.55 74.9733 360.875 75.7608 360.35 76.7358C359.825 77.7108 359.562 78.9483 359.562 80.4483C359.562 81.8733 359.825 83.0733 360.35 84.0483C360.875 85.0233 361.587 85.8108 362.487 86.4108C363.387 86.9358 364.437 87.3108 365.637 87.5358C366.837 87.7608 368.075 87.8733 369.35 87.8733C372.5 87.8733 374.937 87.3483 376.662 86.2983C378.387 85.2483 379.662 84.0108 380.487 82.5858C381.312 81.0858 381.8 79.5858 381.95 78.0858C382.175 76.5858 382.287 75.3858 382.287 74.4858V68.5233Z" fill="#27272A"/>
</svg>
